<?xml version="1.0" encoding="UTF-8" standalone="no"?>
<!DOCTYPE svg PUBLIC "-//W3C//DTD SVG 1.1//EN"
 "http://www.w3.org/Graphics/SVG/1.1/DTD/svg11.dtd">
<!-- Generated by graphviz version 2.40.1 (20161225.0304)
 -->
<!-- Title: Ogre::ScriptTranslator Pages: 1 -->
<svg width="464pt" height="633pt"
 viewBox="0.00 0.00 464.00 633.00" xmlns="http://www.w3.org/2000/svg" xmlns:xlink="http://www.w3.org/1999/xlink">
<g id="graph0" class="graph" transform="scale(1 1) rotate(0) translate(4 629)">
<title>Ogre::ScriptTranslator</title>
<!-- Node0 -->
<g id="node1" class="node">
<title>Node0</title>
<polygon fill="#bfbfbf" stroke="#000000" points="143,-297.5 143,-316.5 256,-316.5 256,-297.5 143,-297.5"/>
<text text-anchor="middle" x="199.5" y="-304.5" font-family="Helvetica,sans-Serif" font-size="10.00" fill="#000000">Ogre::ScriptTranslator</text>
</g>
<!-- Node2 -->
<g id="node3" class="node">
<title>Node2</title>
<g id="a_node3"><a xlink:href="class_ogre_1_1_composition_pass_translator.html" target="_top" xlink:title="Ogre::CompositionPassTranslator">
<polygon fill="none" stroke="#000000" points="292,-605.5 292,-624.5 456,-624.5 456,-605.5 292,-605.5"/>
<text text-anchor="middle" x="374" y="-612.5" font-family="Helvetica,sans-Serif" font-size="10.00" fill="#000000">Ogre::CompositionPassTranslator</text>
</a>
</g>
</g>
<!-- Node0&#45;&gt;Node2 -->
<g id="edge2" class="edge">
<title>Node0&#45;&gt;Node2</title>
<path fill="none" stroke="#191970" d="M203.1429,-326.4515C214.4983,-385.052 250.9568,-558.1945 292,-596 296.0844,-599.7622 300.763,-602.8261 305.7694,-605.3162"/>
<polygon fill="#191970" stroke="#191970" points="206.5784,-325.782 201.2657,-316.6155 199.7025,-327.0944 206.5784,-325.782"/>
</g>
<!-- Node3 -->
<g id="node4" class="node">
<title>Node3</title>
<g id="a_node4"><a xlink:href="class_ogre_1_1_composition_target_pass_translator.html" target="_top" xlink:title="Ogre::CompositionTargetPass\lTranslator">
<polygon fill="none" stroke="#000000" points="299.5,-556 299.5,-586 448.5,-586 448.5,-556 299.5,-556"/>
<text text-anchor="start" x="307.5" y="-574" font-family="Helvetica,sans-Serif" font-size="10.00" fill="#000000">Ogre::CompositionTargetPass</text>
<text text-anchor="middle" x="374" y="-563" font-family="Helvetica,sans-Serif" font-size="10.00" fill="#000000">Translator</text>
</a>
</g>
</g>
<!-- Node0&#45;&gt;Node3 -->
<g id="edge3" class="edge">
<title>Node0&#45;&gt;Node3</title>
<path fill="none" stroke="#191970" d="M201.3306,-327.0794C206.602,-372.9685 225.9611,-486.2354 292,-547 295.7113,-550.4149 299.8832,-553.346 304.3279,-555.8617"/>
<polygon fill="#191970" stroke="#191970" points="204.7915,-326.5209 200.2741,-316.9374 197.8291,-327.2462 204.7915,-326.5209"/>
</g>
<!-- Node4 -->
<g id="node5" class="node">
<title>Node4</title>
<g id="a_node5"><a xlink:href="class_ogre_1_1_composition_technique_translator.html" target="_top" xlink:title="Ogre::CompositionTechnique\lTranslator">
<polygon fill="none" stroke="#000000" points="302.5,-507 302.5,-537 445.5,-537 445.5,-507 302.5,-507"/>
<text text-anchor="start" x="310.5" y="-525" font-family="Helvetica,sans-Serif" font-size="10.00" fill="#000000">Ogre::CompositionTechnique</text>
<text text-anchor="middle" x="374" y="-514" font-family="Helvetica,sans-Serif" font-size="10.00" fill="#000000">Translator</text>
</a>
</g>
</g>
<!-- Node0&#45;&gt;Node4 -->
<g id="edge4" class="edge">
<title>Node0&#45;&gt;Node4</title>
<path fill="none" stroke="#191970" d="M203.5177,-326.4423C212.463,-364.8174 237.6618,-450.5936 292,-497 296.527,-500.8662 301.6412,-504.1345 307.0487,-506.8975"/>
<polygon fill="#191970" stroke="#191970" points="206.9065,-325.5565 201.3315,-316.5471 200.0714,-327.0668 206.9065,-325.5565"/>
</g>
<!-- Node5 -->
<g id="node6" class="node">
<title>Node5</title>
<g id="a_node6"><a xlink:href="class_ogre_1_1_compositor_translator.html" target="_top" xlink:title="Ogre::CompositorTranslator">
<polygon fill="none" stroke="#000000" points="305.5,-468.5 305.5,-487.5 442.5,-487.5 442.5,-468.5 305.5,-468.5"/>
<text text-anchor="middle" x="374" y="-475.5" font-family="Helvetica,sans-Serif" font-size="10.00" fill="#000000">Ogre::CompositorTranslator</text>
</a>
</g>
</g>
<!-- Node0&#45;&gt;Node5 -->
<g id="edge5" class="edge">
<title>Node0&#45;&gt;Node5</title>
<path fill="none" stroke="#191970" d="M205.6912,-326.3932C217.1772,-359.1102 244.9903,-425.0188 292,-459 297.3294,-462.8524 303.3189,-465.9375 309.5718,-468.406"/>
<polygon fill="#191970" stroke="#191970" points="208.9241,-325.0261 202.4178,-316.6644 202.2896,-327.2584 208.9241,-325.0261"/>
</g>
<!-- Node6 -->
<g id="node7" class="node">
<title>Node6</title>
<g id="a_node7"><a xlink:href="struct_ogre_1_1_font_translator.html" target="_top" xlink:title="[font_translator] ">
<polygon fill="none" stroke="#000000" points="320.5,-430.5 320.5,-449.5 427.5,-449.5 427.5,-430.5 320.5,-430.5"/>
<text text-anchor="middle" x="374" y="-437.5" font-family="Helvetica,sans-Serif" font-size="10.00" fill="#000000">Ogre::FontTranslator</text>
</a>
</g>
</g>
<!-- Node0&#45;&gt;Node6 -->
<g id="edge6" class="edge">
<title>Node0&#45;&gt;Node6</title>
<path fill="none" stroke="#191970" d="M209.4493,-325.846C224.0189,-351.5225 253.644,-397.0373 292,-421 300.5515,-426.3425 310.4502,-430.1853 320.3488,-432.9488"/>
<polygon fill="#191970" stroke="#191970" points="212.3424,-323.8434 204.4579,-316.7663 206.2082,-327.2156 212.3424,-323.8434"/>
</g>
<!-- Node7 -->
<g id="node8" class="node">
<title>Node7</title>
<g id="a_node8"><a xlink:href="class_ogre_1_1_gpu_program_translator.html" target="_top" xlink:title="Ogre::GpuProgramTranslator">
<polygon fill="none" stroke="#000000" points="303,-392.5 303,-411.5 445,-411.5 445,-392.5 303,-392.5"/>
<text text-anchor="middle" x="374" y="-399.5" font-family="Helvetica,sans-Serif" font-size="10.00" fill="#000000">Ogre::GpuProgramTranslator</text>
</a>
</g>
</g>
<!-- Node0&#45;&gt;Node7 -->
<g id="edge7" class="edge">
<title>Node0&#45;&gt;Node7</title>
<path fill="none" stroke="#191970" d="M215.2109,-323.865C232.4075,-341.3008 261.6034,-368.0256 292,-383 299.8653,-386.8747 308.5482,-389.9769 317.2333,-392.4558"/>
<polygon fill="#191970" stroke="#191970" points="217.6524,-321.3546 208.1928,-316.5831 212.6122,-326.2123 217.6524,-321.3546"/>
</g>
<!-- Node8 -->
<g id="node9" class="node">
<title>Node8</title>
<g id="a_node9"><a xlink:href="class_ogre_1_1_material_translator.html" target="_top" xlink:title="Ogre::MaterialTranslator">
<polygon fill="none" stroke="#000000" points="313,-354.5 313,-373.5 435,-373.5 435,-354.5 313,-354.5"/>
<text text-anchor="middle" x="374" y="-361.5" font-family="Helvetica,sans-Serif" font-size="10.00" fill="#000000">Ogre::MaterialTranslator</text>
</a>
</g>
</g>
<!-- Node0&#45;&gt;Node8 -->
<g id="edge8" class="edge">
<title>Node0&#45;&gt;Node8</title>
<path fill="none" stroke="#191970" d="M229.4152,-320.7357C247.3079,-328.5849 270.6473,-338.1898 292,-345 303.1379,-348.5523 315.3224,-351.7399 326.8117,-354.4438"/>
<polygon fill="#191970" stroke="#191970" points="230.6418,-317.4508 220.0824,-316.5846 227.7969,-323.8466 230.6418,-317.4508"/>
</g>
<!-- Node9 -->
<g id="node10" class="node">
<title>Node9</title>
<g id="a_node10"><a xlink:href="class_ogre_1_1_particle_affector_translator.html" target="_top" xlink:title="Ogre::ParticleAffectorTranslator">
<polygon fill="none" stroke="#000000" points="296.5,-316.5 296.5,-335.5 451.5,-335.5 451.5,-316.5 296.5,-316.5"/>
<text text-anchor="middle" x="374" y="-323.5" font-family="Helvetica,sans-Serif" font-size="10.00" fill="#000000">Ogre::ParticleAffectorTranslator</text>
</a>
</g>
</g>
<!-- Node0&#45;&gt;Node9 -->
<g id="edge9" class="edge">
<title>Node0&#45;&gt;Node9</title>
<path fill="none" stroke="#191970" d="M266.2634,-314.2694C276.1133,-315.3418 286.3323,-316.4545 296.379,-317.5484"/>
<polygon fill="#191970" stroke="#191970" points="266.4753,-310.7718 256.1551,-313.1688 265.7175,-317.7307 266.4753,-310.7718"/>
</g>
<!-- Node10 -->
<g id="node11" class="node">
<title>Node10</title>
<g id="a_node11"><a xlink:href="class_ogre_1_1_particle_emitter_translator.html" target="_top" xlink:title="Ogre::ParticleEmitterTranslator">
<polygon fill="none" stroke="#000000" points="298,-278.5 298,-297.5 450,-297.5 450,-278.5 298,-278.5"/>
<text text-anchor="middle" x="374" y="-285.5" font-family="Helvetica,sans-Serif" font-size="10.00" fill="#000000">Ogre::ParticleEmitterTranslator</text>
</a>
</g>
</g>
<!-- Node0&#45;&gt;Node10 -->
<g id="edge10" class="edge">
<title>Node0&#45;&gt;Node10</title>
<path fill="none" stroke="#191970" d="M266.3381,-299.7225C276.6795,-298.5965 287.4261,-297.4264 297.9515,-296.2803"/>
<polygon fill="#191970" stroke="#191970" points="265.7175,-296.2693 256.1551,-300.8312 266.4753,-303.2282 265.7175,-296.2693"/>
</g>
<!-- Node11 -->
<g id="node12" class="node">
<title>Node11</title>
<g id="a_node12"><a xlink:href="class_ogre_1_1_particle_system_translator.html" target="_top" xlink:title="Ogre::ParticleSystemTranslator">
<polygon fill="none" stroke="#000000" points="297,-240.5 297,-259.5 451,-259.5 451,-240.5 297,-240.5"/>
<text text-anchor="middle" x="374" y="-247.5" font-family="Helvetica,sans-Serif" font-size="10.00" fill="#000000">Ogre::ParticleSystemTranslator</text>
</a>
</g>
</g>
<!-- Node0&#45;&gt;Node11 -->
<g id="edge11" class="edge">
<title>Node0&#45;&gt;Node11</title>
<path fill="none" stroke="#191970" d="M229.4152,-293.2643C247.3079,-285.4151 270.6473,-275.8102 292,-269 303.1379,-265.4477 315.3224,-262.2601 326.8117,-259.5562"/>
<polygon fill="#191970" stroke="#191970" points="227.7969,-290.1534 220.0824,-297.4154 230.6418,-296.5492 227.7969,-290.1534"/>
</g>
<!-- Node12 -->
<g id="node13" class="node">
<title>Node12</title>
<g id="a_node13"><a xlink:href="class_ogre_1_1_pass_translator.html" target="_top" xlink:title="Ogre::PassTranslator">
<polygon fill="none" stroke="#000000" points="319,-202.5 319,-221.5 429,-221.5 429,-202.5 319,-202.5"/>
<text text-anchor="middle" x="374" y="-209.5" font-family="Helvetica,sans-Serif" font-size="10.00" fill="#000000">Ogre::PassTranslator</text>
</a>
</g>
</g>
<!-- Node0&#45;&gt;Node12 -->
<g id="edge12" class="edge">
<title>Node0&#45;&gt;Node12</title>
<path fill="none" stroke="#191970" d="M215.2109,-290.135C232.4075,-272.6992 261.6034,-245.9744 292,-231 300.3897,-226.8669 309.7095,-223.6129 318.9701,-221.0567"/>
<polygon fill="#191970" stroke="#191970" points="212.6122,-287.7877 208.1928,-297.4169 217.6524,-292.6454 212.6122,-287.7877"/>
</g>
<!-- Node13 -->
<g id="node14" class="node">
<title>Node13</title>
<g id="a_node14"><a xlink:href="class_ogre_1_1_r_t_shader_1_1_s_g_script_translator.html" target="_top" xlink:title="This class responsible for translating core features of the RT Shader System for Ogre material script...">
<polygon fill="none" stroke="#000000" points="307,-153 307,-183 441,-183 441,-153 307,-153"/>
<text text-anchor="start" x="315" y="-171" font-family="Helvetica,sans-Serif" font-size="10.00" fill="#000000">Ogre::RTShader::SGScript</text>
<text text-anchor="middle" x="374" y="-160" font-family="Helvetica,sans-Serif" font-size="10.00" fill="#000000">Translator</text>
</a>
</g>
</g>
<!-- Node0&#45;&gt;Node13 -->
<g id="edge13" class="edge">
<title>Node0&#45;&gt;Node13</title>
<path fill="none" stroke="#191970" d="M209.6865,-288.5197C224.5342,-263.2719 254.4837,-218.2571 292,-193 297.6791,-189.1766 303.9649,-185.9201 310.4559,-183.1502"/>
<polygon fill="#191970" stroke="#191970" points="206.5134,-287.018 204.5896,-297.4367 212.5907,-290.4918 206.5134,-287.018"/>
</g>
<!-- Node14 -->
<g id="node15" class="node">
<title>Node14</title>
<g id="a_node15"><a xlink:href="class_ogre_1_1_shared_params_translator.html" target="_top" xlink:title="Ogre::SharedParamsTranslator">
<polygon fill="none" stroke="#000000" points="298,-114.5 298,-133.5 450,-133.5 450,-114.5 298,-114.5"/>
<text text-anchor="middle" x="374" y="-121.5" font-family="Helvetica,sans-Serif" font-size="10.00" fill="#000000">Ogre::SharedParamsTranslator</text>
</a>
</g>
</g>
<!-- Node0&#45;&gt;Node14 -->
<g id="edge14" class="edge">
<title>Node0&#45;&gt;Node14</title>
<path fill="none" stroke="#191970" d="M204.7936,-287.5557C215.2959,-252.8271 242.1713,-180.2913 292,-143 297.1478,-139.1474 302.9485,-136.0579 309.0254,-133.5829"/>
<polygon fill="#191970" stroke="#191970" points="201.3598,-286.8318 201.9508,-297.4101 208.0855,-288.7721 201.3598,-286.8318"/>
</g>
<!-- Node15 -->
<g id="node16" class="node">
<title>Node15</title>
<g id="a_node16"><a xlink:href="class_ogre_1_1_technique_translator.html" target="_top" xlink:title="Ogre::TechniqueTranslator">
<polygon fill="none" stroke="#000000" points="308,-76.5 308,-95.5 440,-95.5 440,-76.5 308,-76.5"/>
<text text-anchor="middle" x="374" y="-83.5" font-family="Helvetica,sans-Serif" font-size="10.00" fill="#000000">Ogre::TechniqueTranslator</text>
</a>
</g>
</g>
<!-- Node0&#45;&gt;Node15 -->
<g id="edge15" class="edge">
<title>Node0&#45;&gt;Node15</title>
<path fill="none" stroke="#191970" d="M202.6493,-287.1176C210.201,-246.3134 233.2751,-152.9304 292,-105 296.7549,-101.1191 302.1567,-98.0003 307.8652,-95.4978"/>
<polygon fill="#191970" stroke="#191970" points="199.1695,-286.7005 200.9142,-297.1507 206.0671,-287.8934 199.1695,-286.7005"/>
</g>
<!-- Node16 -->
<g id="node17" class="node">
<title>Node16</title>
<g id="a_node17"><a xlink:href="class_ogre_1_1_texture_source_translator.html" target="_top" xlink:title="Ogre::TextureSourceTranslator">
<polygon fill="none" stroke="#000000" points="298.5,-38.5 298.5,-57.5 449.5,-57.5 449.5,-38.5 298.5,-38.5"/>
<text text-anchor="middle" x="374" y="-45.5" font-family="Helvetica,sans-Serif" font-size="10.00" fill="#000000">Ogre::TextureSourceTranslator</text>
</a>
</g>
</g>
<!-- Node0&#45;&gt;Node16 -->
<g id="edge16" class="edge">
<title>Node0&#45;&gt;Node16</title>
<path fill="none" stroke="#191970" d="M201.0293,-287.2909C205.7009,-241.2615 223.9444,-126.1266 292,-67 296.4126,-63.1664 301.4482,-60.0669 306.8044,-57.5657"/>
<polygon fill="#191970" stroke="#191970" points="197.5275,-287.1535 200.1119,-297.4283 204.499,-287.7844 197.5275,-287.1535"/>
</g>
<!-- Node17 -->
<g id="node18" class="node">
<title>Node17</title>
<g id="a_node18"><a xlink:href="class_ogre_1_1_texture_unit_translator.html" target="_top" xlink:title="Ogre::TextureUnitTranslator">
<polygon fill="none" stroke="#000000" points="305,-.5 305,-19.5 443,-19.5 443,-.5 305,-.5"/>
<text text-anchor="middle" x="374" y="-7.5" font-family="Helvetica,sans-Serif" font-size="10.00" fill="#000000">Ogre::TextureUnitTranslator</text>
</a>
</g>
</g>
<!-- Node0&#45;&gt;Node17 -->
<g id="edge17" class="edge">
<title>Node0&#45;&gt;Node17</title>
<path fill="none" stroke="#191970" d="M203.4022,-287.5486C215.2341,-230.4596 252.334,-65.1196 292,-29 296.2139,-25.1629 301.047,-22.0539 306.2128,-19.5403"/>
<polygon fill="#191970" stroke="#191970" points="199.9513,-286.9545 201.3794,-297.4526 206.8097,-288.3553 199.9513,-286.9545"/>
</g>
<!-- Node1 -->
<g id="node2" class="node">
<title>Node1</title>
<g id="a_node2"><a xlink:href="class_ogre_1_1_allocated_object.html" target="_top" xlink:title="ScriptTranslatorAlloc">
<polygon fill="none" stroke="#000000" points="0,-297.5 0,-316.5 107,-316.5 107,-297.5 0,-297.5"/>
<text text-anchor="middle" x="53.5" y="-304.5" font-family="Helvetica,sans-Serif" font-size="10.00" fill="#000000">ScriptTranslatorAlloc</text>
</a>
</g>
</g>
<!-- Node1&#45;&gt;Node0 -->
<g id="edge1" class="edge">
<title>Node1&#45;&gt;Node0</title>
<path fill="none" stroke="#191970" d="M117.2027,-307C125.6312,-307 134.2279,-307 142.5332,-307"/>
<polygon fill="#191970" stroke="#191970" points="117.036,-303.5001 107.036,-307 117.0359,-310.5001 117.036,-303.5001"/>
</g>
</g>
</svg>
