<?xml version="1.0" encoding="UTF-8" standalone="no"?>
<!DOCTYPE svg PUBLIC "-//W3C//DTD SVG 1.1//EN"
 "http://www.w3.org/Graphics/SVG/1.1/DTD/svg11.dtd">
<!-- Generated by graphviz version 2.40.1 (20161225.0304)
 -->
<!-- Title: Ogre::Serializer Pages: 1 -->
<svg width="963pt" height="180pt"
 viewBox="0.00 0.00 963.00 180.00" xmlns="http://www.w3.org/2000/svg" xmlns:xlink="http://www.w3.org/1999/xlink">
<g id="graph0" class="graph" transform="scale(1 1) rotate(0) translate(4 176)">
<title>Ogre::Serializer</title>
<!-- Node0 -->
<g id="node1" class="node">
<title>Node0</title>
<polygon fill="#bfbfbf" stroke="#000000" points="115,-76.5 115,-95.5 199,-95.5 199,-76.5 115,-76.5"/>
<text text-anchor="middle" x="157" y="-83.5" font-family="Helvetica,sans-Serif" font-size="10.00" fill="#000000">Ogre::Serializer</text>
</g>
<!-- Node2 -->
<g id="node3" class="node">
<title>Node2</title>
<g id="a_node3"><a xlink:href="class_ogre_1_1_gpu_named_constants_serializer.html" target="_top" xlink:title="Simple class for loading / saving GpuNamedConstants. ">
<polygon fill="none" stroke="#000000" points="235,-152.5 235,-171.5 414,-171.5 414,-152.5 235,-152.5"/>
<text text-anchor="middle" x="324.5" y="-159.5" font-family="Helvetica,sans-Serif" font-size="10.00" fill="#000000">Ogre::GpuNamedConstantsSerializer</text>
</a>
</g>
</g>
<!-- Node0&#45;&gt;Node2 -->
<g id="edge2" class="edge">
<title>Node0&#45;&gt;Node2</title>
<path fill="none" stroke="#191970" d="M174.6811,-102.3378C189.6552,-115.2881 212.2594,-132.8411 235,-143 243.7018,-146.8874 253.2411,-149.9963 262.7472,-152.478"/>
<polygon fill="#191970" stroke="#191970" points="176.9971,-99.7135 167.1948,-95.6928 172.3502,-104.9487 176.9971,-99.7135"/>
</g>
<!-- Node3 -->
<g id="node4" class="node">
<title>Node3</title>
<g id="a_node4"><a xlink:href="class_ogre_1_1_lod_config_serializer.html" target="_top" xlink:title="Ogre::LodConfigSerializer">
<polygon fill="none" stroke="#000000" points="260.5,-114.5 260.5,-133.5 388.5,-133.5 388.5,-114.5 260.5,-114.5"/>
<text text-anchor="middle" x="324.5" y="-121.5" font-family="Helvetica,sans-Serif" font-size="10.00" fill="#000000">Ogre::LodConfigSerializer</text>
</a>
</g>
</g>
<!-- Node0&#45;&gt;Node3 -->
<g id="edge3" class="edge">
<title>Node0&#45;&gt;Node3</title>
<path fill="none" stroke="#191970" d="M204.7971,-97.881C214.7652,-100.2919 225.2158,-102.7703 235,-105 249.0935,-108.2117 264.4765,-111.5409 278.4513,-114.4983"/>
<polygon fill="#191970" stroke="#191970" points="205.5765,-94.4686 195.0324,-95.5044 203.921,-101.27 205.5765,-94.4686"/>
</g>
<!-- Node4 -->
<g id="node5" class="node">
<title>Node4</title>
<g id="a_node5"><a xlink:href="class_ogre_1_1_mesh_serializer.html" target="_top" xlink:title="Class for serialising mesh data to/from an OGRE .mesh file. ">
<polygon fill="none" stroke="#000000" points="270.5,-76.5 270.5,-95.5 378.5,-95.5 378.5,-76.5 270.5,-76.5"/>
<text text-anchor="middle" x="324.5" y="-83.5" font-family="Helvetica,sans-Serif" font-size="10.00" fill="#000000">Ogre::MeshSerializer</text>
</a>
</g>
</g>
<!-- Node0&#45;&gt;Node4 -->
<g id="edge4" class="edge">
<title>Node0&#45;&gt;Node4</title>
<path fill="none" stroke="#191970" d="M209.4114,-86C228.7479,-86 250.6889,-86 270.1899,-86"/>
<polygon fill="#191970" stroke="#191970" points="209.2674,-82.5001 199.2673,-86 209.2673,-89.5001 209.2674,-82.5001"/>
</g>
<!-- Node5 -->
<g id="node6" class="node">
<title>Node5</title>
<g id="a_node6"><a xlink:href="class_ogre_1_1_mesh_serializer_impl.html" target="_top" xlink:title="Internal implementation of Mesh reading / writing for the latest version of the .mesh format...">
<polygon fill="none" stroke="#000000" points="261,-38.5 261,-57.5 388,-57.5 388,-38.5 261,-38.5"/>
<text text-anchor="middle" x="324.5" y="-45.5" font-family="Helvetica,sans-Serif" font-size="10.00" fill="#000000">Ogre::MeshSerializerImpl</text>
</a>
</g>
</g>
<!-- Node0&#45;&gt;Node5 -->
<g id="edge5" class="edge">
<title>Node0&#45;&gt;Node5</title>
<path fill="none" stroke="#191970" d="M204.7971,-74.119C214.7652,-71.7081 225.2158,-69.2297 235,-67 249.0935,-63.7883 264.4765,-60.4591 278.4513,-57.5017"/>
<polygon fill="#191970" stroke="#191970" points="203.921,-70.73 195.0324,-76.4956 205.5765,-77.5314 203.921,-70.73"/>
</g>
<!-- Node12 -->
<g id="node10" class="node">
<title>Node12</title>
<g id="a_node10"><a xlink:href="class_ogre_1_1_skeleton_serializer.html" target="_top" xlink:title="Class for serialising skeleton data to/from an OGRE .skeleton file. ">
<polygon fill="none" stroke="#000000" points="263.5,-.5 263.5,-19.5 385.5,-19.5 385.5,-.5 263.5,-.5"/>
<text text-anchor="middle" x="324.5" y="-7.5" font-family="Helvetica,sans-Serif" font-size="10.00" fill="#000000">Ogre::SkeletonSerializer</text>
</a>
</g>
</g>
<!-- Node0&#45;&gt;Node12 -->
<g id="edge9" class="edge">
<title>Node0&#45;&gt;Node12</title>
<path fill="none" stroke="#191970" d="M174.6811,-69.6622C189.6552,-56.7119 212.2594,-39.1589 235,-29 243.8469,-25.0478 253.5593,-21.9003 263.2225,-19.3984"/>
<polygon fill="#191970" stroke="#191970" points="172.3502,-67.0513 167.1948,-76.3072 176.9971,-72.2865 172.3502,-67.0513"/>
</g>
<!-- Node1 -->
<g id="node2" class="node">
<title>Node1</title>
<g id="a_node2"><a xlink:href="class_ogre_1_1_allocated_object.html" target="_top" xlink:title="SerializerAlloc">
<polygon fill="none" stroke="#000000" points="0,-76.5 0,-95.5 79,-95.5 79,-76.5 0,-76.5"/>
<text text-anchor="middle" x="39.5" y="-83.5" font-family="Helvetica,sans-Serif" font-size="10.00" fill="#000000">SerializerAlloc</text>
</a>
</g>
</g>
<!-- Node1&#45;&gt;Node0 -->
<g id="edge1" class="edge">
<title>Node1&#45;&gt;Node0</title>
<path fill="none" stroke="#191970" d="M89.4319,-86C97.896,-86 106.61,-86 114.8495,-86"/>
<polygon fill="#191970" stroke="#191970" points="89.2802,-82.5001 79.2801,-86 89.2801,-89.5001 89.2802,-82.5001"/>
</g>
<!-- Node6 -->
<g id="node7" class="node">
<title>Node6</title>
<g id="a_node7"><a xlink:href="class_ogre_1_1_mesh_serializer_impl__v1__8.html" target="_top" xlink:title="Class for providing backwards&#45;compatibility for loading version 1.8 of the .mesh format. ">
<polygon fill="none" stroke="#000000" points="450,-38.5 450,-57.5 603,-57.5 603,-38.5 450,-38.5"/>
<text text-anchor="middle" x="526.5" y="-45.5" font-family="Helvetica,sans-Serif" font-size="10.00" fill="#000000">Ogre::MeshSerializerImpl_v1_8</text>
</a>
</g>
</g>
<!-- Node5&#45;&gt;Node6 -->
<g id="edge6" class="edge">
<title>Node5&#45;&gt;Node6</title>
<path fill="none" stroke="#191970" d="M398.3886,-48C415.1048,-48 432.8911,-48 449.7234,-48"/>
<polygon fill="#191970" stroke="#191970" points="398.1368,-44.5001 388.1368,-48 398.1368,-51.5001 398.1368,-44.5001"/>
</g>
<!-- Node7 -->
<g id="node8" class="node">
<title>Node7</title>
<g id="a_node8"><a xlink:href="class_ogre_1_1_mesh_serializer_impl__v1__41.html" target="_top" xlink:title="Class for providing backwards&#45;compatibility for loading version 1.41 of the .mesh format...">
<polygon fill="none" stroke="#000000" points="639,-33 639,-63 766,-63 766,-33 639,-33"/>
<text text-anchor="start" x="647" y="-51" font-family="Helvetica,sans-Serif" font-size="10.00" fill="#000000">Ogre::MeshSerializerImpl</text>
<text text-anchor="middle" x="702.5" y="-40" font-family="Helvetica,sans-Serif" font-size="10.00" fill="#000000">_v1_41</text>
</a>
</g>
</g>
<!-- Node6&#45;&gt;Node7 -->
<g id="edge7" class="edge">
<title>Node6&#45;&gt;Node7</title>
<path fill="none" stroke="#191970" d="M613.3139,-48C621.966,-48 630.6333,-48 638.9813,-48"/>
<polygon fill="#191970" stroke="#191970" points="613.1842,-44.5001 603.1842,-48 613.1841,-51.5001 613.1842,-44.5001"/>
</g>
<!-- Node8 -->
<g id="node9" class="node">
<title>Node8</title>
<g id="a_node9"><a xlink:href="class_ogre_1_1_mesh_serializer_impl__v1__4.html" target="_top" xlink:title="Class for providing backwards&#45;compatibility for loading version 1.4 of the .mesh format. ">
<polygon fill="none" stroke="#ff0000" points="802,-38.5 802,-57.5 955,-57.5 955,-38.5 802,-38.5"/>
<text text-anchor="middle" x="878.5" y="-45.5" font-family="Helvetica,sans-Serif" font-size="10.00" fill="#000000">Ogre::MeshSerializerImpl_v1_4</text>
</a>
</g>
</g>
<!-- Node7&#45;&gt;Node8 -->
<g id="edge8" class="edge">
<title>Node7&#45;&gt;Node8</title>
<path fill="none" stroke="#191970" d="M776.2487,-48C784.7092,-48 793.3503,-48 801.8478,-48"/>
<polygon fill="#191970" stroke="#191970" points="776.0401,-44.5001 766.04,-48 776.04,-51.5001 776.0401,-44.5001"/>
</g>
</g>
</svg>
