<?xml version="1.0" encoding="UTF-8" standalone="no"?>
<!DOCTYPE svg PUBLIC "-//W3C//DTD SVG 1.1//EN"
 "http://www.w3.org/Graphics/SVG/1.1/DTD/svg11.dtd">
<!-- Generated by graphviz version 2.40.1 (20161225.0304)
 -->
<!-- Title: Ogre::ScriptTranslatorManager Pages: 1 -->
<svg width="324pt" height="151pt"
 viewBox="0.00 0.00 324.00 151.00" xmlns="http://www.w3.org/2000/svg" xmlns:xlink="http://www.w3.org/1999/xlink">
<g id="graph0" class="graph" transform="scale(1 1) rotate(0) translate(4 147)">
<title>Ogre::ScriptTranslatorManager</title>
<!-- Node0 -->
<g id="node1" class="node">
<title>Node0</title>
<polygon fill="#bfbfbf" stroke="#000000" points="78,-67.5 78,-86.5 228,-86.5 228,-67.5 78,-67.5"/>
<text text-anchor="middle" x="153" y="-74.5" font-family="Helvetica,sans-Serif" font-size="10.00" fill="#000000">Ogre::ScriptTranslatorManager</text>
</g>
<!-- Node2 -->
<g id="node3" class="node">
<title>Node2</title>
<g id="a_node3"><a xlink:href="class_ogre_1_1_builtin_script_translator_manager.html" target="_top" xlink:title="This class manages the builtin translators. ">
<polygon fill="none" stroke="#000000" points="0,-.5 0,-30.5 140,-30.5 140,-.5 0,-.5"/>
<text text-anchor="start" x="8" y="-18.5" font-family="Helvetica,sans-Serif" font-size="10.00" fill="#000000">Ogre::BuiltinScriptTranslator</text>
<text text-anchor="middle" x="70" y="-7.5" font-family="Helvetica,sans-Serif" font-size="10.00" fill="#000000">Manager</text>
</a>
</g>
</g>
<!-- Node0&#45;&gt;Node2 -->
<g id="edge2" class="edge">
<title>Node0&#45;&gt;Node2</title>
<path fill="none" stroke="#191970" d="M131.8274,-61.3119C119.0681,-51.8577 102.9043,-39.8809 90.3041,-30.5446"/>
<polygon fill="#191970" stroke="#191970" points="129.9128,-64.2493 140.0313,-67.3906 134.0802,-58.625 129.9128,-64.2493"/>
</g>
<!-- Node3 -->
<g id="node4" class="node">
<title>Node3</title>
<g id="a_node4"><a xlink:href="class_ogre_1_1_overlay_translator_manager.html" target="_top" xlink:title="[font_translator] ">
<polygon fill="none" stroke="#000000" points="158,-6 158,-25 316,-25 316,-6 158,-6"/>
<text text-anchor="middle" x="237" y="-13" font-family="Helvetica,sans-Serif" font-size="10.00" fill="#000000">Ogre::OverlayTranslatorManager</text>
</a>
</g>
</g>
<!-- Node0&#45;&gt;Node3 -->
<g id="edge3" class="edge">
<title>Node0&#45;&gt;Node3</title>
<path fill="none" stroke="#191970" d="M174.2137,-61.4685C189.873,-50.0037 210.6869,-34.765 223.9672,-25.0419"/>
<polygon fill="#191970" stroke="#191970" points="172.126,-58.6592 166.125,-67.3906 176.2612,-64.3072 172.126,-58.6592"/>
</g>
<!-- Node1 -->
<g id="node2" class="node">
<title>Node1</title>
<g id="a_node2"><a xlink:href="class_ogre_1_1_allocated_object.html" target="_top" xlink:title="ScriptTranslatorAlloc">
<polygon fill="none" stroke="#000000" points="99.5,-123.5 99.5,-142.5 206.5,-142.5 206.5,-123.5 99.5,-123.5"/>
<text text-anchor="middle" x="153" y="-130.5" font-family="Helvetica,sans-Serif" font-size="10.00" fill="#000000">ScriptTranslatorAlloc</text>
</a>
</g>
</g>
<!-- Node1&#45;&gt;Node0 -->
<g id="edge1" class="edge">
<title>Node1&#45;&gt;Node0</title>
<path fill="none" stroke="#191970" d="M153,-113.1575C153,-104.155 153,-93.9199 153,-86.6427"/>
<polygon fill="#191970" stroke="#191970" points="149.5001,-113.2455 153,-123.2455 156.5001,-113.2456 149.5001,-113.2455"/>
</g>
</g>
</svg>
