<?xml version="1.0" encoding="UTF-8" standalone="no"?>
<!DOCTYPE svg PUBLIC "-//W3C//DTD SVG 1.1//EN"
 "http://www.w3.org/Graphics/SVG/1.1/DTD/svg11.dtd">
<!-- Generated by graphviz version 2.40.1 (20161225.0304)
 -->
<!-- Title: Ogre::MeshSerializerImpl_v1_8 Pages: 1 -->
<svg width="161pt" height="431pt"
 viewBox="0.00 0.00 161.00 431.00" xmlns="http://www.w3.org/2000/svg" xmlns:xlink="http://www.w3.org/1999/xlink">
<g id="graph0" class="graph" transform="scale(1 1) rotate(0) translate(4 427)">
<title>Ogre::MeshSerializerImpl_v1_8</title>
<!-- Node0 -->
<g id="node1" class="node">
<title>Node0</title>
<polygon fill="#bfbfbf" stroke="#000000" points="0,-235.5 0,-254.5 153,-254.5 153,-235.5 0,-235.5"/>
<text text-anchor="middle" x="76.5" y="-242.5" font-family="Helvetica,sans-Serif" font-size="10.00" fill="#000000">Ogre::MeshSerializerImpl_v1_8</text>
</g>
<!-- Node4 -->
<g id="node5" class="node">
<title>Node4</title>
<g id="a_node5"><a xlink:href="class_ogre_1_1_mesh_serializer_impl__v1__41.html" target="_top" xlink:title="Class for providing backwards&#45;compatibility for loading version 1.41 of the .mesh format...">
<polygon fill="none" stroke="#000000" points="13,-168.5 13,-198.5 140,-198.5 140,-168.5 13,-168.5"/>
<text text-anchor="start" x="21" y="-186.5" font-family="Helvetica,sans-Serif" font-size="10.00" fill="#000000">Ogre::MeshSerializerImpl</text>
<text text-anchor="middle" x="76.5" y="-175.5" font-family="Helvetica,sans-Serif" font-size="10.00" fill="#000000">_v1_41</text>
</a>
</g>
</g>
<!-- Node0&#45;&gt;Node4 -->
<g id="edge4" class="edge">
<title>Node0&#45;&gt;Node4</title>
<path fill="none" stroke="#191970" d="M76.5,-225.3693C76.5,-216.681 76.5,-206.6241 76.5,-198.5446"/>
<polygon fill="#191970" stroke="#191970" points="73.0001,-225.3906 76.5,-235.3906 80.0001,-225.3907 73.0001,-225.3906"/>
</g>
<!-- Node1 -->
<g id="node2" class="node">
<title>Node1</title>
<g id="a_node2"><a xlink:href="class_ogre_1_1_mesh_serializer_impl.html" target="_top" xlink:title="Internal implementation of Mesh reading / writing for the latest version of the .mesh format...">
<polygon fill="none" stroke="#000000" points="13,-291.5 13,-310.5 140,-310.5 140,-291.5 13,-291.5"/>
<text text-anchor="middle" x="76.5" y="-298.5" font-family="Helvetica,sans-Serif" font-size="10.00" fill="#000000">Ogre::MeshSerializerImpl</text>
</a>
</g>
</g>
<!-- Node1&#45;&gt;Node0 -->
<g id="edge1" class="edge">
<title>Node1&#45;&gt;Node0</title>
<path fill="none" stroke="#191970" d="M76.5,-281.1575C76.5,-272.155 76.5,-261.9199 76.5,-254.6427"/>
<polygon fill="#191970" stroke="#191970" points="73.0001,-281.2455 76.5,-291.2455 80.0001,-281.2456 73.0001,-281.2455"/>
</g>
<!-- Node2 -->
<g id="node3" class="node">
<title>Node2</title>
<g id="a_node3"><a xlink:href="class_ogre_1_1_serializer.html" target="_top" xlink:title="Generic class for serialising data to / from binary stream&#45;based files. ">
<polygon fill="none" stroke="#000000" points="34.5,-347.5 34.5,-366.5 118.5,-366.5 118.5,-347.5 34.5,-347.5"/>
<text text-anchor="middle" x="76.5" y="-354.5" font-family="Helvetica,sans-Serif" font-size="10.00" fill="#000000">Ogre::Serializer</text>
</a>
</g>
</g>
<!-- Node2&#45;&gt;Node1 -->
<g id="edge2" class="edge">
<title>Node2&#45;&gt;Node1</title>
<path fill="none" stroke="#191970" d="M76.5,-337.1575C76.5,-328.155 76.5,-317.9199 76.5,-310.6427"/>
<polygon fill="#191970" stroke="#191970" points="73.0001,-337.2455 76.5,-347.2455 80.0001,-337.2456 73.0001,-337.2455"/>
</g>
<!-- Node3 -->
<g id="node4" class="node">
<title>Node3</title>
<g id="a_node4"><a xlink:href="class_ogre_1_1_allocated_object.html" target="_top" xlink:title="SerializerAlloc">
<polygon fill="none" stroke="#000000" points="37,-403.5 37,-422.5 116,-422.5 116,-403.5 37,-403.5"/>
<text text-anchor="middle" x="76.5" y="-410.5" font-family="Helvetica,sans-Serif" font-size="10.00" fill="#000000">SerializerAlloc</text>
</a>
</g>
</g>
<!-- Node3&#45;&gt;Node2 -->
<g id="edge3" class="edge">
<title>Node3&#45;&gt;Node2</title>
<path fill="none" stroke="#191970" d="M76.5,-393.1575C76.5,-384.155 76.5,-373.9199 76.5,-366.6427"/>
<polygon fill="#191970" stroke="#191970" points="73.0001,-393.2455 76.5,-403.2455 80.0001,-393.2456 73.0001,-393.2455"/>
</g>
<!-- Node5 -->
<g id="node6" class="node">
<title>Node5</title>
<g id="a_node6"><a xlink:href="class_ogre_1_1_mesh_serializer_impl__v1__4.html" target="_top" xlink:title="Class for providing backwards&#45;compatibility for loading version 1.4 of the .mesh format. ">
<polygon fill="none" stroke="#000000" points="0,-112.5 0,-131.5 153,-131.5 153,-112.5 0,-112.5"/>
<text text-anchor="middle" x="76.5" y="-119.5" font-family="Helvetica,sans-Serif" font-size="10.00" fill="#000000">Ogre::MeshSerializerImpl_v1_4</text>
</a>
</g>
</g>
<!-- Node4&#45;&gt;Node5 -->
<g id="edge5" class="edge">
<title>Node4&#45;&gt;Node5</title>
<path fill="none" stroke="#191970" d="M76.5,-158.2849C76.5,-148.9858 76.5,-138.9883 76.5,-131.8469"/>
<polygon fill="#191970" stroke="#191970" points="73.0001,-158.2977 76.5,-168.2977 80.0001,-158.2978 73.0001,-158.2977"/>
</g>
<!-- Node6 -->
<g id="node7" class="node">
<title>Node6</title>
<g id="a_node7"><a xlink:href="class_ogre_1_1_mesh_serializer_impl__v1__3.html" target="_top" xlink:title="Class for providing backwards&#45;compatibility for loading version 1.3 of the .mesh format. ">
<polygon fill="none" stroke="#000000" points="0,-56.5 0,-75.5 153,-75.5 153,-56.5 0,-56.5"/>
<text text-anchor="middle" x="76.5" y="-63.5" font-family="Helvetica,sans-Serif" font-size="10.00" fill="#000000">Ogre::MeshSerializerImpl_v1_3</text>
</a>
</g>
</g>
<!-- Node5&#45;&gt;Node6 -->
<g id="edge6" class="edge">
<title>Node5&#45;&gt;Node6</title>
<path fill="none" stroke="#191970" d="M76.5,-102.1575C76.5,-93.155 76.5,-82.9199 76.5,-75.6427"/>
<polygon fill="#191970" stroke="#191970" points="73.0001,-102.2455 76.5,-112.2455 80.0001,-102.2456 73.0001,-102.2455"/>
</g>
<!-- Node7 -->
<g id="node8" class="node">
<title>Node7</title>
<g id="a_node8"><a xlink:href="class_ogre_1_1_mesh_serializer_impl__v1__2.html" target="_top" xlink:title="Class for providing backwards&#45;compatibility for loading version 1.2 of the .mesh format. ">
<polygon fill="none" stroke="#ff0000" points="0,-.5 0,-19.5 153,-19.5 153,-.5 0,-.5"/>
<text text-anchor="middle" x="76.5" y="-7.5" font-family="Helvetica,sans-Serif" font-size="10.00" fill="#000000">Ogre::MeshSerializerImpl_v1_2</text>
</a>
</g>
</g>
<!-- Node6&#45;&gt;Node7 -->
<g id="edge7" class="edge">
<title>Node6&#45;&gt;Node7</title>
<path fill="none" stroke="#191970" d="M76.5,-46.1575C76.5,-37.155 76.5,-26.9199 76.5,-19.6427"/>
<polygon fill="#191970" stroke="#191970" points="73.0001,-46.2455 76.5,-56.2455 80.0001,-46.2456 73.0001,-46.2455"/>
</g>
</g>
</svg>
