<?xml version="1.0" encoding="UTF-8" standalone="no"?>
<!DOCTYPE svg PUBLIC "-//W3C//DTD SVG 1.1//EN"
 "http://www.w3.org/Graphics/SVG/1.1/DTD/svg11.dtd">
<!-- Generated by graphviz version 2.40.1 (20161225.0304)
 -->
<!-- Title: Ogre::HardwareBufferManagerBase Pages: 1 -->
<svg width="700pt" height="429pt"
 viewBox="0.00 0.00 700.00 428.50" xmlns="http://www.w3.org/2000/svg" xmlns:xlink="http://www.w3.org/1999/xlink">
<g id="graph0" class="graph" transform="scale(1 1) rotate(0) translate(4 424.5)">
<title>Ogre::HardwareBufferManagerBase</title>
<!-- Node0 -->
<g id="node1" class="node">
<title>Node0</title>
<polygon fill="#bfbfbf" stroke="#000000" points="101,-248.5 101,-267.5 273,-267.5 273,-248.5 101,-248.5"/>
<text text-anchor="middle" x="187" y="-255.5" font-family="Helvetica,sans-Serif" font-size="10.00" fill="#000000">Ogre::HardwareBufferManagerBase</text>
</g>
<!-- Node2 -->
<g id="node3" class="node">
<title>Node2</title>
<g id="a_node3"><a xlink:href="class_ogre_1_1_d3_d11_hardware_buffer_manager_base.html" target="_top" xlink:title="Implementation of HardwareBufferManager for D3D11. ">
<polygon fill="none" stroke="#000000" points="330,-390 330,-420 473,-420 473,-390 330,-390"/>
<text text-anchor="start" x="338" y="-408" font-family="Helvetica,sans-Serif" font-size="10.00" fill="#000000">Ogre::D3D11HardwareBuffer</text>
<text text-anchor="middle" x="401.5" y="-397" font-family="Helvetica,sans-Serif" font-size="10.00" fill="#000000">ManagerBase</text>
</a>
</g>
</g>
<!-- Node0&#45;&gt;Node2 -->
<g id="edge2" class="edge">
<title>Node0&#45;&gt;Node2</title>
<path fill="none" stroke="#191970" d="M199.6654,-275.8828C219.725,-302.8483 261.4414,-353.6642 309,-381 315.4728,-384.7204 322.5282,-387.8745 329.7613,-390.5463"/>
<polygon fill="#191970" stroke="#191970" points="202.4346,-273.74 193.7156,-267.7208 196.7779,-277.8634 202.4346,-273.74"/>
</g>
<!-- Node3 -->
<g id="node4" class="node">
<title>Node3</title>
<g id="a_node4"><a xlink:href="class_ogre_1_1_d3_d9_hardware_buffer_manager_base.html" target="_top" xlink:title="Implementation of HardwareBufferManager for D3D9. ">
<polygon fill="none" stroke="#000000" points="333,-341 333,-371 470,-371 470,-341 333,-341"/>
<text text-anchor="start" x="341" y="-359" font-family="Helvetica,sans-Serif" font-size="10.00" fill="#000000">Ogre::D3D9HardwareBuffer</text>
<text text-anchor="middle" x="401.5" y="-348" font-family="Helvetica,sans-Serif" font-size="10.00" fill="#000000">ManagerBase</text>
</a>
</g>
</g>
<!-- Node0&#45;&gt;Node3 -->
<g id="edge3" class="edge">
<title>Node0&#45;&gt;Node3</title>
<path fill="none" stroke="#191970" d="M208.0435,-273.3978C231.5823,-289.9772 271.3611,-316.1067 309,-332 316.9477,-335.356 325.4832,-338.3388 334.0397,-340.9616"/>
<polygon fill="#191970" stroke="#191970" points="210.028,-270.5141 199.8555,-267.5524 205.9608,-276.2113 210.028,-270.5141"/>
</g>
<!-- Node4 -->
<g id="node5" class="node">
<title>Node4</title>
<g id="a_node5"><a xlink:href="class_ogre_1_1_default_hardware_buffer_manager_base.html" target="_top" xlink:title="Specialisation of HardwareBufferManagerBase to emulate hardware buffers. ">
<polygon fill="none" stroke="#000000" points="330,-292 330,-322 473,-322 473,-292 330,-292"/>
<text text-anchor="start" x="338" y="-310" font-family="Helvetica,sans-Serif" font-size="10.00" fill="#000000">Ogre::DefaultHardwareBuffer</text>
<text text-anchor="middle" x="401.5" y="-299" font-family="Helvetica,sans-Serif" font-size="10.00" fill="#000000">ManagerBase</text>
</a>
</g>
</g>
<!-- Node0&#45;&gt;Node4 -->
<g id="edge4" class="edge">
<title>Node0&#45;&gt;Node4</title>
<path fill="none" stroke="#191970" d="M238.5691,-269.7804C267.6721,-276.4286 304.3445,-284.806 335.5247,-291.9287"/>
<polygon fill="#191970" stroke="#191970" points="239.1404,-266.3208 228.6121,-267.5058 237.5815,-273.145 239.1404,-266.3208"/>
</g>
<!-- Node5 -->
<g id="node6" class="node">
<title>Node5</title>
<g id="a_node6"><a xlink:href="class_ogre_1_1_g_l3_plus_hardware_buffer_manager_base.html" target="_top" xlink:title="Implementation of HardwareBufferManager for OpenGL. ">
<polygon fill="none" stroke="#000000" points="327,-243 327,-273 476,-273 476,-243 327,-243"/>
<text text-anchor="start" x="335" y="-261" font-family="Helvetica,sans-Serif" font-size="10.00" fill="#000000">Ogre::GL3PlusHardwareBuffer</text>
<text text-anchor="middle" x="401.5" y="-250" font-family="Helvetica,sans-Serif" font-size="10.00" fill="#000000">ManagerBase</text>
</a>
</g>
</g>
<!-- Node0&#45;&gt;Node5 -->
<g id="edge5" class="edge">
<title>Node0&#45;&gt;Node5</title>
<path fill="none" stroke="#191970" d="M283.1127,-258C297.791,-258 312.7507,-258 326.8758,-258"/>
<polygon fill="#191970" stroke="#191970" points="283.0095,-254.5001 273.0094,-258 283.0094,-261.5001 283.0095,-254.5001"/>
</g>
<!-- Node6 -->
<g id="node7" class="node">
<title>Node6</title>
<g id="a_node7"><a xlink:href="class_ogre_1_1_g_l_e_s2_hardware_buffer_manager_base.html" target="_top" xlink:title="Implementation of HardwareBufferManager for OpenGL ES. ">
<polygon fill="none" stroke="#000000" points="330,-194 330,-224 473,-224 473,-194 330,-194"/>
<text text-anchor="start" x="338" y="-212" font-family="Helvetica,sans-Serif" font-size="10.00" fill="#000000">Ogre::GLES2HardwareBuffer</text>
<text text-anchor="middle" x="401.5" y="-201" font-family="Helvetica,sans-Serif" font-size="10.00" fill="#000000">ManagerBase</text>
</a>
</g>
</g>
<!-- Node0&#45;&gt;Node6 -->
<g id="edge6" class="edge">
<title>Node0&#45;&gt;Node6</title>
<path fill="none" stroke="#191970" d="M238.5691,-246.2196C267.6721,-239.5714 304.3445,-231.194 335.5247,-224.0713"/>
<polygon fill="#191970" stroke="#191970" points="237.5815,-242.855 228.6121,-248.4942 239.1404,-249.6792 237.5815,-242.855"/>
</g>
<!-- Node7 -->
<g id="node8" class="node">
<title>Node7</title>
<g id="a_node8"><a xlink:href="class_ogre_1_1_g_l_hardware_buffer_manager_base.html" target="_top" xlink:title="Implementation of HardwareBufferManager for OpenGL. ">
<polygon fill="none" stroke="#000000" points="309,-155.5 309,-174.5 494,-174.5 494,-155.5 309,-155.5"/>
<text text-anchor="middle" x="401.5" y="-162.5" font-family="Helvetica,sans-Serif" font-size="10.00" fill="#000000">Ogre::GLHardwareBufferManagerBase</text>
</a>
</g>
</g>
<!-- Node0&#45;&gt;Node7 -->
<g id="edge7" class="edge">
<title>Node0&#45;&gt;Node7</title>
<path fill="none" stroke="#191970" d="M207.5174,-242.5057C230.8747,-225.6169 270.7615,-199.0034 309,-184 318.7674,-180.1676 329.4324,-177.0639 339.9356,-174.5641"/>
<polygon fill="#191970" stroke="#191970" points="205.4009,-239.7176 199.4128,-248.4579 209.5444,-245.3595 205.4009,-239.7176"/>
</g>
<!-- Node8 -->
<g id="node9" class="node">
<title>Node8</title>
<g id="a_node9"><a xlink:href="class_ogre_1_1_hardware_buffer_manager.html" target="_top" xlink:title="Singleton wrapper for hardware buffer manager. ">
<polygon fill="none" stroke="#000000" points="327,-117.5 327,-136.5 476,-136.5 476,-117.5 327,-117.5"/>
<text text-anchor="middle" x="401.5" y="-124.5" font-family="Helvetica,sans-Serif" font-size="10.00" fill="#000000">Ogre::HardwareBufferManager</text>
</a>
</g>
</g>
<!-- Node0&#45;&gt;Node8 -->
<g id="edge8" class="edge">
<title>Node0&#45;&gt;Node8</title>
<path fill="none" stroke="#191970" d="M200.7578,-240.3937C221.4168,-215.2588 262.9704,-169.5344 309,-146 316.5904,-142.1191 324.9138,-139.0309 333.3591,-136.5734"/>
<polygon fill="#191970" stroke="#191970" points="197.8929,-238.371 194.3487,-248.3554 203.3457,-242.7604 197.8929,-238.371"/>
</g>
<!-- Node1 -->
<g id="node2" class="node">
<title>Node1</title>
<g id="a_node2"><a xlink:href="class_ogre_1_1_allocated_object.html" target="_top" xlink:title="BufferAlloc">
<polygon fill="none" stroke="#000000" points="0,-248.5 0,-267.5 65,-267.5 65,-248.5 0,-248.5"/>
<text text-anchor="middle" x="32.5" y="-255.5" font-family="Helvetica,sans-Serif" font-size="10.00" fill="#000000">BufferAlloc</text>
</a>
</g>
</g>
<!-- Node1&#45;&gt;Node0 -->
<g id="edge1" class="edge">
<title>Node1&#45;&gt;Node0</title>
<path fill="none" stroke="#191970" d="M75.417,-258C83.4407,-258 92.0848,-258 100.8844,-258"/>
<polygon fill="#191970" stroke="#191970" points="75.2655,-254.5001 65.2655,-258 75.2654,-261.5001 75.2655,-254.5001"/>
</g>
<!-- Node9 -->
<g id="node10" class="node">
<title>Node9</title>
<g id="a_node10"><a xlink:href="class_ogre_1_1_d3_d11_hardware_buffer_manager.html" target="_top" xlink:title="D3D11HardwareBufferManagerBase as a Singleton. ">
<polygon fill="none" stroke="#000000" points="539.5,-235 539.5,-265 682.5,-265 682.5,-235 539.5,-235"/>
<text text-anchor="start" x="547.5" y="-253" font-family="Helvetica,sans-Serif" font-size="10.00" fill="#000000">Ogre::D3D11HardwareBuffer</text>
<text text-anchor="middle" x="611" y="-242" font-family="Helvetica,sans-Serif" font-size="10.00" fill="#000000">Manager</text>
</a>
</g>
</g>
<!-- Node8&#45;&gt;Node9 -->
<g id="edge9" class="edge">
<title>Node8&#45;&gt;Node9</title>
<path fill="none" stroke="#191970" d="M485.1464,-140.0523C488.2549,-141.8128 491.2235,-143.7872 494,-146 524.174,-170.0483 501.0246,-199.5203 530,-225 534.4207,-228.8874 539.4375,-232.1703 544.7562,-234.9428"/>
<polygon fill="#191970" stroke="#191970" points="486.5835,-136.8593 476.0594,-135.637 483.5242,-143.1554 486.5835,-136.8593"/>
</g>
<!-- Node10 -->
<g id="node11" class="node">
<title>Node10</title>
<g id="a_node11"><a xlink:href="class_ogre_1_1_d3_d9_hardware_buffer_manager.html" target="_top" xlink:title="D3D9HardwareBufferManagerBase as a Singleton. ">
<polygon fill="none" stroke="#000000" points="542.5,-186 542.5,-216 679.5,-216 679.5,-186 542.5,-186"/>
<text text-anchor="start" x="550.5" y="-204" font-family="Helvetica,sans-Serif" font-size="10.00" fill="#000000">Ogre::D3D9HardwareBuffer</text>
<text text-anchor="middle" x="611" y="-193" font-family="Helvetica,sans-Serif" font-size="10.00" fill="#000000">Manager</text>
</a>
</g>
</g>
<!-- Node8&#45;&gt;Node10 -->
<g id="edge10" class="edge">
<title>Node8&#45;&gt;Node10</title>
<path fill="none" stroke="#191970" d="M477.6137,-139.4293C483.271,-141.3186 488.7953,-143.4944 494,-146 512.766,-155.0341 511.6929,-166.0688 530,-176 536.9855,-179.7895 544.6281,-183.0927 552.3397,-185.9461"/>
<polygon fill="#191970" stroke="#191970" points="478.5858,-136.0667 468.0003,-136.5125 476.5534,-142.7652 478.5858,-136.0667"/>
</g>
<!-- Node11 -->
<g id="node12" class="node">
<title>Node11</title>
<g id="a_node12"><a xlink:href="class_ogre_1_1_default_hardware_buffer_manager.html" target="_top" xlink:title="DefaultHardwareBufferManager as a Singleton. ">
<polygon fill="none" stroke="#000000" points="539.5,-137 539.5,-167 682.5,-167 682.5,-137 539.5,-137"/>
<text text-anchor="start" x="547.5" y="-155" font-family="Helvetica,sans-Serif" font-size="10.00" fill="#000000">Ogre::DefaultHardwareBuffer</text>
<text text-anchor="middle" x="611" y="-144" font-family="Helvetica,sans-Serif" font-size="10.00" fill="#000000">Manager</text>
</a>
</g>
</g>
<!-- Node8&#45;&gt;Node11 -->
<g id="edge11" class="edge">
<title>Node8&#45;&gt;Node11</title>
<path fill="none" stroke="#191970" d="M486.4889,-137.1419C504.0616,-139.2389 522.4042,-141.4277 539.4405,-143.4607"/>
<polygon fill="#191970" stroke="#191970" points="486.5913,-133.6293 476.247,-135.9197 485.7618,-140.58 486.5913,-133.6293"/>
</g>
<!-- Node12 -->
<g id="node13" class="node">
<title>Node12</title>
<g id="a_node13"><a xlink:href="class_ogre_1_1_g_l3_plus_hardware_buffer_manager.html" target="_top" xlink:title="GL3PlusHardwareBufferManagerBase as a Singleton. ">
<polygon fill="none" stroke="#000000" points="536.5,-88 536.5,-118 685.5,-118 685.5,-88 536.5,-88"/>
<text text-anchor="start" x="544.5" y="-106" font-family="Helvetica,sans-Serif" font-size="10.00" fill="#000000">Ogre::GL3PlusHardwareBuffer</text>
<text text-anchor="middle" x="611" y="-95" font-family="Helvetica,sans-Serif" font-size="10.00" fill="#000000">Manager</text>
</a>
</g>
</g>
<!-- Node8&#45;&gt;Node12 -->
<g id="edge12" class="edge">
<title>Node8&#45;&gt;Node12</title>
<path fill="none" stroke="#191970" d="M486.4242,-117.2712C502.9355,-115.3797 520.129,-113.41 536.2818,-111.5596"/>
<polygon fill="#191970" stroke="#191970" points="485.7837,-113.8216 476.247,-118.4371 486.5804,-120.7761 485.7837,-113.8216"/>
</g>
<!-- Node13 -->
<g id="node14" class="node">
<title>Node13</title>
<g id="a_node14"><a xlink:href="class_ogre_1_1_g_l_e_s2_hardware_buffer_manager.html" target="_top" xlink:title="GLES2HardwareBufferManagerBase as a Singleton. ">
<polygon fill="none" stroke="#000000" points="539.5,-39 539.5,-69 682.5,-69 682.5,-39 539.5,-39"/>
<text text-anchor="start" x="547.5" y="-57" font-family="Helvetica,sans-Serif" font-size="10.00" fill="#000000">Ogre::GLES2HardwareBuffer</text>
<text text-anchor="middle" x="611" y="-46" font-family="Helvetica,sans-Serif" font-size="10.00" fill="#000000">Manager</text>
</a>
</g>
</g>
<!-- Node8&#45;&gt;Node13 -->
<g id="edge13" class="edge">
<title>Node8&#45;&gt;Node13</title>
<path fill="none" stroke="#191970" d="M434.3039,-113.6984C460.1214,-103.4228 497.1099,-89.1255 530,-78 539.0308,-74.9452 548.6975,-71.8945 558.0951,-69.0426"/>
<polygon fill="#191970" stroke="#191970" points="432.9728,-110.4611 424.9879,-117.4247 435.5726,-116.9605 432.9728,-110.4611"/>
</g>
<!-- Node14 -->
<g id="node15" class="node">
<title>Node14</title>
<g id="a_node15"><a xlink:href="class_ogre_1_1_g_l_hardware_buffer_manager.html" target="_top" xlink:title="GLHardwareBufferManagerBase as a Singleton. ">
<polygon fill="none" stroke="#000000" points="530,-.5 530,-19.5 692,-19.5 692,-.5 530,-.5"/>
<text text-anchor="middle" x="611" y="-7.5" font-family="Helvetica,sans-Serif" font-size="10.00" fill="#000000">Ogre::GLHardwareBufferManager</text>
</a>
</g>
</g>
<!-- Node8&#45;&gt;Node14 -->
<g id="edge14" class="edge">
<title>Node8&#45;&gt;Node14</title>
<path fill="none" stroke="#191970" d="M418.4866,-110.193C441.6898,-88.1998 485.5149,-49.9957 530,-29 538.0987,-25.1777 547.0256,-22.0923 555.9046,-19.6112"/>
<polygon fill="#191970" stroke="#191970" points="415.9444,-107.7822 411.1721,-117.2414 420.8016,-112.8228 415.9444,-107.7822"/>
</g>
</g>
</svg>
