<?xml version="1.0" encoding="UTF-8" standalone="no"?>
<!DOCTYPE svg PUBLIC "-//W3C//DTD SVG 1.1//EN"
 "http://www.w3.org/Graphics/SVG/1.1/DTD/svg11.dtd">
<!-- Generated by graphviz version 2.40.1 (20161225.0304)
 -->
<!-- Title: Ogre::MeshSerializerImpl Pages: 1 -->
<svg width="161pt" height="375pt"
 viewBox="0.00 0.00 161.00 375.00" xmlns="http://www.w3.org/2000/svg" xmlns:xlink="http://www.w3.org/1999/xlink">
<g id="graph0" class="graph" transform="scale(1 1) rotate(0) translate(4 371)">
<title>Ogre::MeshSerializerImpl</title>
<!-- Node0 -->
<g id="node1" class="node">
<title>Node0</title>
<polygon fill="#bfbfbf" stroke="#000000" points="13,-235.5 13,-254.5 140,-254.5 140,-235.5 13,-235.5"/>
<text text-anchor="middle" x="76.5" y="-242.5" font-family="Helvetica,sans-Serif" font-size="10.00" fill="#000000">Ogre::MeshSerializerImpl</text>
</g>
<!-- Node3 -->
<g id="node4" class="node">
<title>Node3</title>
<g id="a_node4"><a xlink:href="class_ogre_1_1_mesh_serializer_impl__v1__8.html" target="_top" xlink:title="Class for providing backwards&#45;compatibility for loading version 1.8 of the .mesh format. ">
<polygon fill="none" stroke="#000000" points="0,-179.5 0,-198.5 153,-198.5 153,-179.5 0,-179.5"/>
<text text-anchor="middle" x="76.5" y="-186.5" font-family="Helvetica,sans-Serif" font-size="10.00" fill="#000000">Ogre::MeshSerializerImpl_v1_8</text>
</a>
</g>
</g>
<!-- Node0&#45;&gt;Node3 -->
<g id="edge3" class="edge">
<title>Node0&#45;&gt;Node3</title>
<path fill="none" stroke="#191970" d="M76.5,-225.1575C76.5,-216.155 76.5,-205.9199 76.5,-198.6427"/>
<polygon fill="#191970" stroke="#191970" points="73.0001,-225.2455 76.5,-235.2455 80.0001,-225.2456 73.0001,-225.2455"/>
</g>
<!-- Node1 -->
<g id="node2" class="node">
<title>Node1</title>
<g id="a_node2"><a xlink:href="class_ogre_1_1_serializer.html" target="_top" xlink:title="Generic class for serialising data to / from binary stream&#45;based files. ">
<polygon fill="none" stroke="#000000" points="34.5,-291.5 34.5,-310.5 118.5,-310.5 118.5,-291.5 34.5,-291.5"/>
<text text-anchor="middle" x="76.5" y="-298.5" font-family="Helvetica,sans-Serif" font-size="10.00" fill="#000000">Ogre::Serializer</text>
</a>
</g>
</g>
<!-- Node1&#45;&gt;Node0 -->
<g id="edge1" class="edge">
<title>Node1&#45;&gt;Node0</title>
<path fill="none" stroke="#191970" d="M76.5,-281.1575C76.5,-272.155 76.5,-261.9199 76.5,-254.6427"/>
<polygon fill="#191970" stroke="#191970" points="73.0001,-281.2455 76.5,-291.2455 80.0001,-281.2456 73.0001,-281.2455"/>
</g>
<!-- Node2 -->
<g id="node3" class="node">
<title>Node2</title>
<g id="a_node3"><a xlink:href="class_ogre_1_1_allocated_object.html" target="_top" xlink:title="SerializerAlloc">
<polygon fill="none" stroke="#000000" points="37,-347.5 37,-366.5 116,-366.5 116,-347.5 37,-347.5"/>
<text text-anchor="middle" x="76.5" y="-354.5" font-family="Helvetica,sans-Serif" font-size="10.00" fill="#000000">SerializerAlloc</text>
</a>
</g>
</g>
<!-- Node2&#45;&gt;Node1 -->
<g id="edge2" class="edge">
<title>Node2&#45;&gt;Node1</title>
<path fill="none" stroke="#191970" d="M76.5,-337.1575C76.5,-328.155 76.5,-317.9199 76.5,-310.6427"/>
<polygon fill="#191970" stroke="#191970" points="73.0001,-337.2455 76.5,-347.2455 80.0001,-337.2456 73.0001,-337.2455"/>
</g>
<!-- Node4 -->
<g id="node5" class="node">
<title>Node4</title>
<g id="a_node5"><a xlink:href="class_ogre_1_1_mesh_serializer_impl__v1__41.html" target="_top" xlink:title="Class for providing backwards&#45;compatibility for loading version 1.41 of the .mesh format...">
<polygon fill="none" stroke="#000000" points="13,-112.5 13,-142.5 140,-142.5 140,-112.5 13,-112.5"/>
<text text-anchor="start" x="21" y="-130.5" font-family="Helvetica,sans-Serif" font-size="10.00" fill="#000000">Ogre::MeshSerializerImpl</text>
<text text-anchor="middle" x="76.5" y="-119.5" font-family="Helvetica,sans-Serif" font-size="10.00" fill="#000000">_v1_41</text>
</a>
</g>
</g>
<!-- Node3&#45;&gt;Node4 -->
<g id="edge4" class="edge">
<title>Node3&#45;&gt;Node4</title>
<path fill="none" stroke="#191970" d="M76.5,-169.3693C76.5,-160.681 76.5,-150.6241 76.5,-142.5446"/>
<polygon fill="#191970" stroke="#191970" points="73.0001,-169.3906 76.5,-179.3906 80.0001,-169.3907 73.0001,-169.3906"/>
</g>
<!-- Node5 -->
<g id="node6" class="node">
<title>Node5</title>
<g id="a_node6"><a xlink:href="class_ogre_1_1_mesh_serializer_impl__v1__4.html" target="_top" xlink:title="Class for providing backwards&#45;compatibility for loading version 1.4 of the .mesh format. ">
<polygon fill="none" stroke="#000000" points="0,-56.5 0,-75.5 153,-75.5 153,-56.5 0,-56.5"/>
<text text-anchor="middle" x="76.5" y="-63.5" font-family="Helvetica,sans-Serif" font-size="10.00" fill="#000000">Ogre::MeshSerializerImpl_v1_4</text>
</a>
</g>
</g>
<!-- Node4&#45;&gt;Node5 -->
<g id="edge5" class="edge">
<title>Node4&#45;&gt;Node5</title>
<path fill="none" stroke="#191970" d="M76.5,-102.2849C76.5,-92.9858 76.5,-82.9883 76.5,-75.8469"/>
<polygon fill="#191970" stroke="#191970" points="73.0001,-102.2977 76.5,-112.2977 80.0001,-102.2978 73.0001,-102.2977"/>
</g>
<!-- Node6 -->
<g id="node7" class="node">
<title>Node6</title>
<g id="a_node7"><a xlink:href="class_ogre_1_1_mesh_serializer_impl__v1__3.html" target="_top" xlink:title="Class for providing backwards&#45;compatibility for loading version 1.3 of the .mesh format. ">
<polygon fill="none" stroke="#ff0000" points="0,-.5 0,-19.5 153,-19.5 153,-.5 0,-.5"/>
<text text-anchor="middle" x="76.5" y="-7.5" font-family="Helvetica,sans-Serif" font-size="10.00" fill="#000000">Ogre::MeshSerializerImpl_v1_3</text>
</a>
</g>
</g>
<!-- Node5&#45;&gt;Node6 -->
<g id="edge6" class="edge">
<title>Node5&#45;&gt;Node6</title>
<path fill="none" stroke="#191970" d="M76.5,-46.1575C76.5,-37.155 76.5,-26.9199 76.5,-19.6427"/>
<polygon fill="#191970" stroke="#191970" points="73.0001,-46.2455 76.5,-56.2455 80.0001,-46.2456 73.0001,-46.2455"/>
</g>
</g>
</svg>
